<svg width="1227" height="193" viewBox="0 0 1227 193" fill="none" xmlns="http://www.w3.org/2000/svg">
<g filter="url(#filter0_d)">
<path d="M131.756 88.0508C131.756 102.465 128.221 113.422 121.151 120.922C114.08 128.422 103.729 132.172 90.0961 132.172C76.6586 132.172 66.3461 128.402 59.1586 120.863C52.0101 113.324 48.4359 102.348 48.4359 87.9336C48.4359 73.6758 51.9906 62.7969 59.1 55.2969C66.2484 47.7578 76.6195 43.9883 90.2133 43.9883C103.846 43.9883 114.178 47.7188 121.209 55.1797C128.241 62.6406 131.756 73.5977 131.756 88.0508ZM72.8109 88.0508C72.8109 104.613 78.5726 112.895 90.0961 112.895C95.9554 112.895 100.291 110.883 103.104 106.859C105.955 102.836 107.381 96.5664 107.381 88.0508C107.381 79.4961 105.936 73.1875 103.045 69.125C100.194 65.0234 95.9164 62.9727 90.2133 62.9727C78.6117 62.9727 72.8109 71.332 72.8109 88.0508ZM173.618 131H150.825V45.3359H201.45V63.9102H173.618V80.2578H199.282V98.832H173.618V131ZM241.905 131H219.112V45.3359H269.737V63.9102H241.905V80.2578H267.57V98.832H241.905V131ZM343.416 104.984C343.416 110.297 342.068 115.023 339.373 119.164C336.677 123.266 332.791 126.469 327.712 128.773C322.634 131.039 316.677 132.172 309.841 132.172C304.138 132.172 299.353 131.781 295.486 131C291.619 130.18 287.595 128.773 283.416 126.781V106.156C287.83 108.422 292.42 110.199 297.185 111.488C301.951 112.738 306.326 113.363 310.31 113.363C313.748 113.363 316.267 112.777 317.869 111.605C319.47 110.395 320.271 108.852 320.271 106.977C320.271 105.805 319.939 104.789 319.275 103.93C318.65 103.031 317.615 102.133 316.17 101.234C314.763 100.336 310.974 98.5 304.802 95.7266C299.216 93.1875 295.017 90.7266 292.205 88.3438C289.431 85.9609 287.361 83.2266 285.994 80.1406C284.666 77.0547 284.002 73.4023 284.002 69.1836C284.002 61.293 286.873 55.1406 292.615 50.7266C298.357 46.3125 306.248 44.1055 316.287 44.1055C325.154 44.1055 334.197 46.1562 343.416 50.2578L336.326 68.1289C328.318 64.457 321.404 62.6211 315.584 62.6211C312.576 62.6211 310.388 63.1484 309.021 64.2031C307.654 65.2578 306.97 66.5664 306.97 68.1289C306.97 69.8086 307.83 71.3125 309.548 72.6406C311.306 73.9688 316.033 76.3906 323.728 79.9062C331.111 83.2266 336.228 86.8008 339.08 90.6289C341.97 94.418 343.416 99.2031 343.416 104.984ZM433.676 131H410.414V96.0781H383.52V131H360.258V45.3359H383.52V77.0938H410.414V45.3359H433.676V131ZM536.006 88.0508C536.006 102.465 532.471 113.422 525.401 120.922C518.33 128.422 507.979 132.172 494.346 132.172C480.909 132.172 470.596 128.402 463.409 120.863C456.26 113.324 452.686 102.348 452.686 87.9336C452.686 73.6758 456.241 62.7969 463.35 55.2969C470.498 47.7578 480.87 43.9883 494.463 43.9883C508.096 43.9883 518.428 47.7188 525.459 55.1797C532.491 62.6406 536.006 73.5977 536.006 88.0508ZM477.061 88.0508C477.061 104.613 482.823 112.895 494.346 112.895C500.205 112.895 504.541 110.883 507.354 106.859C510.205 102.836 511.631 96.5664 511.631 88.0508C511.631 79.4961 510.186 73.1875 507.295 69.125C504.444 65.0234 500.166 62.9727 494.463 62.9727C482.862 62.9727 477.061 71.332 477.061 88.0508ZM578.22 99.8281V131H555.075V45.3359H583.141C606.423 45.3359 618.063 53.7734 618.063 70.6484C618.063 80.5703 613.22 88.2461 603.532 93.6758L628.493 131H602.243L584.079 99.8281H578.22ZM578.22 82.4258H582.555C590.641 82.4258 594.684 78.8516 594.684 71.7031C594.684 65.8047 590.72 62.8555 582.79 62.8555H578.22V82.4258ZM690.745 131H639.886V45.3359H690.745V63.9102H663.03V77.3867H688.695V95.9609H663.03V112.133H690.745V131ZM816.832 86.3516C816.832 100.648 812.887 111.664 804.996 119.398C797.145 127.133 786.09 131 771.832 131H744.117V45.3359H773.766C787.516 45.3359 798.121 48.8516 805.582 55.8828C813.082 62.9141 816.832 73.0703 816.832 86.3516ZM792.809 87.1719C792.809 79.3203 791.246 73.5 788.121 69.7109C785.035 65.9219 780.328 64.0273 774 64.0273H767.262V112.016H772.418C779.449 112.016 784.605 109.984 787.887 105.922C791.168 101.82 792.809 95.5703 792.809 87.1719ZM858.987 99.8281V131H835.842V45.3359H863.909C887.19 45.3359 898.83 53.7734 898.83 70.6484C898.83 80.5703 893.987 88.2461 884.299 93.6758L909.26 131H883.01L864.846 99.8281H858.987ZM858.987 82.4258H863.323C871.409 82.4258 875.452 78.8516 875.452 71.7031C875.452 65.8047 871.487 62.8555 863.557 62.8555H858.987V82.4258ZM971.512 131H920.653V45.3359H971.512V63.9102H943.798V77.3867H969.462V95.9609H943.798V112.133H971.512V131ZM1042.67 131L1038.45 114.945H1010.62L1006.28 131H980.855L1008.8 44.9844H1039.68L1067.98 131H1042.67ZM1033.65 95.9609L1029.96 81.8984C1029.1 78.7734 1028.04 74.7305 1026.79 69.7695C1025.58 64.8086 1024.78 61.2539 1024.39 59.1055C1024.04 61.0977 1023.34 64.3789 1022.28 68.9492C1021.26 73.5195 1018.98 82.5234 1015.42 95.9609H1033.65ZM1118.22 131L1100.7 69.3008H1100.18C1101 79.8086 1101.41 87.9727 1101.41 93.793V131H1080.9V45.3359H1111.72L1129.59 106.156H1130.06L1147.58 45.3359H1178.46V131H1157.19V93.4414C1157.19 91.4883 1157.21 89.3203 1157.25 86.9375C1157.33 84.5547 1157.6 78.7148 1158.07 69.418H1157.54L1140.26 131H1118.22Z" fill="white"/>
<path d="M59.1586 120.863L53.3533 126.368L53.3608 126.376L53.3683 126.384L59.1586 120.863ZM59.1 55.2969L53.2947 49.7924L53.2939 49.7932L59.1 55.2969ZM103.104 106.859L96.5769 102.233L96.5619 102.255L96.547 102.276L103.104 106.859ZM103.045 69.125L96.4768 73.6917L96.5017 73.7275L96.527 73.763L103.045 69.125ZM123.756 88.0508C123.756 101.243 120.525 109.923 115.33 115.434L126.972 126.41C135.917 116.921 139.756 103.687 139.756 88.0508H123.756ZM115.33 115.434C110.215 120.86 102.269 124.172 90.0961 124.172V140.172C105.189 140.172 117.946 135.984 126.972 126.41L115.33 115.434ZM90.0961 124.172C78.1783 124.172 70.2203 120.872 64.9488 115.343L53.3683 126.384C62.4718 135.932 75.1389 140.172 90.0961 140.172V124.172ZM64.9638 115.359C59.6934 109.8 56.4359 101.101 56.4359 87.9336H40.4359C40.4359 103.594 44.3269 116.848 53.3533 126.368L64.9638 115.359ZM56.4359 87.9336C56.4359 74.9365 59.6669 66.3275 64.906 60.8005L53.2939 49.7932C44.3143 59.2662 40.4359 72.415 40.4359 87.9336H56.4359ZM64.9052 60.8013C70.1155 55.3064 78.1048 51.9883 90.2133 51.9883V35.9883C75.1342 35.9883 62.3813 40.2093 53.2947 49.7924L64.9052 60.8013ZM90.2133 51.9883C102.401 51.9883 110.319 55.2887 115.387 60.6664L127.031 49.693C118.037 40.1488 105.291 35.9883 90.2133 35.9883V51.9883ZM115.387 60.6664C120.535 66.1282 123.756 74.7988 123.756 88.0508H139.756C139.756 72.3965 135.947 59.153 127.031 49.693L115.387 60.6664ZM64.8109 88.0508C64.8109 97.0133 66.3252 105.158 70.5653 111.253C75.1721 117.874 82.1469 120.895 90.0961 120.895V104.895C86.5218 104.895 84.8541 103.775 83.6991 102.115C82.1775 99.9276 80.8109 95.6508 80.8109 88.0508H64.8109ZM90.0961 120.895C97.9909 120.895 105.049 118.04 109.661 111.443L96.547 102.276C95.5338 103.725 93.92 104.895 90.0961 104.895V120.895ZM109.631 111.485C113.915 105.44 115.381 97.1511 115.381 88.0508H99.3812C99.3812 95.9817 97.9956 100.232 96.5769 102.233L109.631 111.485ZM115.381 88.0508C115.381 78.8968 113.891 70.5688 109.564 64.487L96.527 73.763C97.9808 75.8062 99.3812 80.0954 99.3812 88.0508H115.381ZM109.614 64.5583C105.037 57.9757 98.1063 54.9727 90.2133 54.9727V70.9727C93.7265 70.9727 95.3501 72.0711 96.4768 73.6917L109.614 64.5583ZM90.2133 54.9727C82.2164 54.9727 75.2116 58.0197 70.5889 64.6813C66.3341 70.8129 64.8109 79.013 64.8109 88.0508H80.8109C80.8109 80.3698 82.1881 76.0308 83.7341 73.8031C84.9121 72.1053 86.6086 70.9727 90.2133 70.9727V54.9727ZM173.618 131V139H181.618V131H173.618ZM150.825 131H142.825V139H150.825V131ZM150.825 45.3359V37.3359H142.825V45.3359H150.825ZM201.45 45.3359H209.45V37.3359H201.45V45.3359ZM201.45 63.9102V71.9102H209.45V63.9102H201.45ZM173.618 63.9102V55.9102H165.618V63.9102H173.618ZM173.618 80.2578H165.618V88.2578H173.618V80.2578ZM199.282 80.2578H207.282V72.2578H199.282V80.2578ZM199.282 98.832V106.832H207.282V98.832H199.282ZM173.618 98.832V90.832H165.618V98.832H173.618ZM173.618 123H150.825V139H173.618V123ZM158.825 131V45.3359H142.825V131H158.825ZM150.825 53.3359H201.45V37.3359H150.825V53.3359ZM193.45 45.3359V63.9102H209.45V45.3359H193.45ZM201.45 55.9102H173.618V71.9102H201.45V55.9102ZM165.618 63.9102V80.2578H181.618V63.9102H165.618ZM173.618 88.2578H199.282V72.2578H173.618V88.2578ZM191.282 80.2578V98.832H207.282V80.2578H191.282ZM199.282 90.832H173.618V106.832H199.282V90.832ZM165.618 98.832V131H181.618V98.832H165.618ZM241.905 131V139H249.905V131H241.905ZM219.112 131H211.112V139H219.112V131ZM219.112 45.3359V37.3359H211.112V45.3359H219.112ZM269.737 45.3359H277.737V37.3359H269.737V45.3359ZM269.737 63.9102V71.9102H277.737V63.9102H269.737ZM241.905 63.9102V55.9102H233.905V63.9102H241.905ZM241.905 80.2578H233.905V88.2578H241.905V80.2578ZM267.57 80.2578H275.57V72.2578H267.57V80.2578ZM267.57 98.832V106.832H275.57V98.832H267.57ZM241.905 98.832V90.832H233.905V98.832H241.905ZM241.905 123H219.112V139H241.905V123ZM227.112 131V45.3359H211.112V131H227.112ZM219.112 53.3359H269.737V37.3359H219.112V53.3359ZM261.737 45.3359V63.9102H277.737V45.3359H261.737ZM269.737 55.9102H241.905V71.9102H269.737V55.9102ZM233.905 63.9102V80.2578H249.905V63.9102H233.905ZM241.905 88.2578H267.57V72.2578H241.905V88.2578ZM259.57 80.2578V98.832H275.57V80.2578H259.57ZM267.57 90.832H241.905V106.832H267.57V90.832ZM233.905 98.832V131H249.905V98.832H233.905ZM339.373 119.164L346.058 123.557L346.068 123.543L346.077 123.528L339.373 119.164ZM327.712 128.773L330.972 136.079L330.995 136.069L331.019 136.058L327.712 128.773ZM295.486 131L293.826 138.826L293.864 138.834L293.902 138.842L295.486 131ZM283.416 126.781H275.416V131.83L279.974 134.003L283.416 126.781ZM283.416 106.156L287.069 99.039L275.416 93.0578V106.156H283.416ZM297.185 111.488L295.096 119.211L295.126 119.219L295.155 119.227L297.185 111.488ZM317.869 111.605L322.593 118.062L322.643 118.025L322.694 117.987L317.869 111.605ZM319.275 103.93L312.708 108.498L312.822 108.663L312.945 108.821L319.275 103.93ZM316.169 101.234L311.862 107.976L311.904 108.003L311.946 108.029L316.169 101.234ZM304.802 95.7266L301.492 103.009L301.508 103.017L301.523 103.024L304.802 95.7266ZM292.205 88.3438L286.991 94.4118L287.012 94.4298L287.033 94.4476L292.205 88.3438ZM285.994 80.1406L278.645 83.3032L278.662 83.3423L278.679 83.3811L285.994 80.1406ZM343.416 50.2578L350.852 53.2079L353.684 46.0701L346.668 42.9486L343.416 50.2578ZM336.326 68.1289L332.991 75.4009L340.654 78.9143L343.762 71.079L336.326 68.1289ZM309.548 72.6406L304.657 78.9709L304.691 78.9974L304.726 79.0236L309.548 72.6406ZM323.728 79.9062L320.404 87.1828L320.425 87.1927L320.447 87.2023L323.728 79.9062ZM339.08 90.6289L332.664 95.4079L332.691 95.4447L332.719 95.4812L339.08 90.6289ZM335.416 104.984C335.416 108.869 334.454 112.056 332.668 114.8L346.077 123.528C349.682 117.991 351.416 111.724 351.416 104.984H335.416ZM332.687 114.771C330.931 117.443 328.3 119.722 324.406 121.489L331.019 136.058C337.281 133.216 342.423 129.089 346.058 123.557L332.687 114.771ZM324.453 121.468C320.607 123.183 315.805 124.172 309.841 124.172V140.172C317.549 140.172 324.661 138.895 330.972 136.079L324.453 121.468ZM309.841 124.172C304.457 124.172 300.242 123.799 297.07 123.158L293.902 138.842C298.464 139.763 303.819 140.172 309.841 140.172V124.172ZM297.146 123.174C293.989 122.504 290.563 121.326 286.858 119.56L279.974 134.003C284.627 136.221 289.249 137.855 293.826 138.826L297.146 123.174ZM291.416 126.781V106.156H275.416V126.781H291.416ZM279.763 113.273C284.673 115.794 289.787 117.775 295.096 119.211L299.274 103.766C295.052 102.624 290.987 101.05 287.069 99.039L279.763 113.273ZM295.155 119.227C300.434 120.611 305.502 121.363 310.31 121.363V105.363C307.15 105.363 303.467 104.865 299.215 103.75L295.155 119.227ZM310.31 121.363C314.336 121.363 318.936 120.737 322.593 118.062L313.145 105.149C313.435 104.936 313.479 105.012 312.966 105.132C312.458 105.25 311.605 105.363 310.31 105.363V121.363ZM322.694 117.987C326.13 115.388 328.271 111.558 328.271 106.977H312.271C312.271 106.735 312.334 106.31 312.57 105.855C312.678 105.647 312.794 105.487 312.891 105.376C312.986 105.267 313.048 105.221 313.044 105.224L322.694 117.987ZM328.271 106.977C328.271 104.183 327.44 101.412 325.605 99.0381L312.945 108.821C312.727 108.54 312.541 108.197 312.418 107.822C312.298 107.453 312.271 107.154 312.271 106.977H328.271ZM325.842 99.3612C324.347 97.2123 322.304 95.628 320.393 94.4401L311.946 108.029C312.391 108.305 312.654 108.509 312.786 108.624C312.923 108.743 312.855 108.709 312.708 108.498L325.842 99.3612ZM320.477 94.4928C318.464 93.2067 314.047 91.1104 308.081 88.4295L301.523 103.024C307.901 105.89 311.063 107.465 311.862 107.976L320.477 94.4928ZM308.113 88.4436C302.816 86.0362 299.376 83.9346 297.376 82.2399L287.033 94.4476C290.658 97.5185 295.616 100.339 301.492 103.009L308.113 88.4436ZM297.418 82.2757C295.47 80.602 294.155 78.8107 293.308 76.9001L278.679 83.3811C280.567 87.6424 283.393 91.3199 286.991 94.4118L297.418 82.2757ZM293.342 76.9781C292.539 75.1114 292.002 72.5836 292.002 69.1836H276.002C276.002 74.2211 276.792 78.9979 278.645 83.3032L293.342 76.9781ZM292.002 69.1836C292.002 63.5216 293.913 59.8194 297.49 57.0692L287.739 44.384C279.833 50.4618 276.002 59.0644 276.002 69.1836H292.002ZM297.49 57.0692C301.384 54.0765 307.342 52.1055 316.287 52.1055V36.1055C305.153 36.1055 295.33 38.5485 287.739 44.384L297.49 57.0692ZM316.287 52.1055C323.889 52.1055 331.828 53.8582 340.164 57.567L346.668 42.9486C336.566 38.4543 326.419 36.1055 316.287 36.1055V52.1055ZM335.979 47.3077L328.89 65.1788L343.762 71.079L350.852 53.2079L335.979 47.3077ZM339.66 60.8569C331.094 56.9289 322.992 54.6211 315.584 54.6211V70.6211C319.816 70.6211 325.542 71.9852 332.991 75.4009L339.66 60.8569ZM315.584 54.6211C311.982 54.6211 307.611 55.1873 304.135 57.8689L313.908 70.5374C313.473 70.8723 313.245 70.8702 313.562 70.7938C313.876 70.7181 314.514 70.6211 315.584 70.6211V54.6211ZM304.135 57.8689C301.041 60.2557 298.97 63.8022 298.97 68.1289H314.97C314.97 68.5601 314.864 69.1239 314.574 69.6797C314.296 70.2109 313.986 70.4767 313.908 70.5374L304.135 57.8689ZM298.97 68.1289C298.97 72.9831 301.604 76.6122 304.657 78.9709L314.44 66.3103C314.21 66.1325 314.353 66.1845 314.561 66.5475C314.799 66.9649 314.97 67.5318 314.97 68.1289H298.97ZM304.726 79.0236C306.218 80.1508 308.402 81.3626 310.764 82.5729C313.277 83.8607 316.503 85.4006 320.404 87.1828L327.052 72.6297C323.258 70.8963 320.273 69.4674 318.06 68.3334C316.953 67.7665 316.085 67.296 315.428 66.9165C315.102 66.7279 314.85 66.5743 314.662 66.4537C314.569 66.3941 314.499 66.347 314.448 66.3119C314.422 66.2946 314.404 66.2812 314.39 66.2717C314.377 66.2622 314.371 66.2576 314.371 66.2577L304.726 79.0236ZM320.447 87.2023C327.346 90.3052 331.009 93.1866 332.664 95.4079L345.495 85.8499C341.447 80.415 334.876 76.1479 327.009 72.6102L320.447 87.2023ZM332.719 95.4812C334.335 97.5992 335.416 100.573 335.416 104.984H351.416C351.416 97.8334 349.606 91.2368 345.44 85.7766L332.719 95.4812ZM433.676 131V139H441.676V131H433.676ZM410.414 131H402.414V139H410.414V131ZM410.414 96.0781H418.414V88.0781H410.414V96.0781ZM383.52 96.0781V88.0781H375.52V96.0781H383.52ZM383.52 131V139H391.52V131H383.52ZM360.258 131H352.258V139H360.258V131ZM360.258 45.3359V37.3359H352.258V45.3359H360.258ZM383.52 45.3359H391.52V37.3359H383.52V45.3359ZM383.52 77.0938H375.52V85.0938H383.52V77.0938ZM410.414 77.0938V85.0938H418.414V77.0938H410.414ZM410.414 45.3359V37.3359H402.414V45.3359H410.414ZM433.676 45.3359H441.676V37.3359H433.676V45.3359ZM433.676 123H410.414V139H433.676V123ZM418.414 131V96.0781H402.414V131H418.414ZM410.414 88.0781H383.52V104.078H410.414V88.0781ZM375.52 96.0781V131H391.52V96.0781H375.52ZM383.52 123H360.258V139H383.52V123ZM368.258 131V45.3359H352.258V131H368.258ZM360.258 53.3359H383.52V37.3359H360.258V53.3359ZM375.52 45.3359V77.0938H391.52V45.3359H375.52ZM383.52 85.0938H410.414V69.0938H383.52V85.0938ZM418.414 77.0938V45.3359H402.414V77.0938H418.414ZM410.414 53.3359H433.676V37.3359H410.414V53.3359ZM425.676 45.3359V131H441.676V45.3359H425.676ZM463.409 120.863L457.603 126.368L457.611 126.376L457.618 126.384L463.409 120.863ZM463.35 55.2969L457.545 49.7924L457.544 49.7932L463.35 55.2969ZM507.354 106.859L500.827 102.233L500.812 102.255L500.797 102.276L507.354 106.859ZM507.295 69.125L500.727 73.6917L500.752 73.7275L500.777 73.763L507.295 69.125ZM528.006 88.0508C528.006 101.243 524.775 109.923 519.58 115.434L531.222 126.41C540.167 116.921 544.006 103.687 544.006 88.0508H528.006ZM519.58 115.434C514.465 120.86 506.519 124.172 494.346 124.172V140.172C509.439 140.172 522.196 135.984 531.222 126.41L519.58 115.434ZM494.346 124.172C482.428 124.172 474.47 120.872 469.199 115.343L457.618 126.384C466.722 135.932 479.389 140.172 494.346 140.172V124.172ZM469.214 115.359C463.943 109.8 460.686 101.101 460.686 87.9336H444.686C444.686 103.594 448.577 116.848 457.603 126.368L469.214 115.359ZM460.686 87.9336C460.686 74.9365 463.917 66.3275 469.156 60.8005L457.544 49.7932C448.564 59.2662 444.686 72.415 444.686 87.9336H460.686ZM469.155 60.8013C474.365 55.3064 482.355 51.9883 494.463 51.9883V35.9883C479.384 35.9883 466.631 40.2093 457.545 49.7924L469.155 60.8013ZM494.463 51.9883C506.651 51.9883 514.569 55.2887 519.637 60.6664L531.281 49.693C522.287 40.1488 509.541 35.9883 494.463 35.9883V51.9883ZM519.637 60.6664C524.785 66.1282 528.006 74.7988 528.006 88.0508H544.006C544.006 72.3965 540.197 59.153 531.281 49.693L519.637 60.6664ZM469.061 88.0508C469.061 97.0133 470.575 105.158 474.815 111.253C479.422 117.874 486.397 120.895 494.346 120.895V104.895C490.772 104.895 489.104 103.775 487.949 102.115C486.427 99.9276 485.061 95.6508 485.061 88.0508H469.061ZM494.346 120.895C502.241 120.895 509.299 118.04 513.911 111.443L500.797 102.276C499.784 103.725 498.17 104.895 494.346 104.895V120.895ZM513.881 111.485C518.165 105.44 519.631 97.1511 519.631 88.0508H503.631C503.631 95.9817 502.246 100.232 500.827 102.233L513.881 111.485ZM519.631 88.0508C519.631 78.8968 518.141 70.5688 513.814 64.487L500.777 73.763C502.231 75.8062 503.631 80.0954 503.631 88.0508H519.631ZM513.864 64.5583C509.287 57.9757 502.356 54.9727 494.463 54.9727V70.9727C497.976 70.9727 499.6 72.0711 500.727 73.6917L513.864 64.5583ZM494.463 54.9727C486.466 54.9727 479.462 58.0197 474.839 64.6813C470.584 70.8129 469.061 79.013 469.061 88.0508H485.061C485.061 80.3698 486.438 76.0308 487.984 73.8031C489.162 72.1053 490.859 70.9727 494.463 70.9727V54.9727ZM578.219 99.8281V91.8281H570.219V99.8281H578.219ZM578.219 131V139H586.219V131H578.219ZM555.075 131H547.075V139H555.075V131ZM555.075 45.3359V37.3359H547.075V45.3359H555.075ZM603.532 93.6758L599.621 86.6972L592.071 90.9287L596.882 98.123L603.532 93.6758ZM628.493 131V139H643.467L635.143 126.553L628.493 131ZM602.243 131L595.331 135.028L597.646 139H602.243V131ZM584.079 99.8281L590.991 95.8004L588.676 91.8281H584.079V99.8281ZM578.219 82.4258H570.219V90.4258H578.219V82.4258ZM578.219 62.8555V54.8555H570.219V62.8555H578.219ZM570.219 99.8281V131H586.219V99.8281H570.219ZM578.219 123H555.075V139H578.219V123ZM563.075 131V45.3359H547.075V131H563.075ZM555.075 53.3359H583.141V37.3359H555.075V53.3359ZM583.141 53.3359C594.054 53.3359 600.795 55.3562 604.638 58.1415C608.003 60.5805 610.063 64.2675 610.063 70.6484H626.063C626.063 60.1544 622.303 51.1851 614.028 45.1867C606.23 39.5345 595.51 37.3359 583.141 37.3359V53.3359ZM610.063 70.6484C610.063 77.2798 607.148 82.4779 599.621 86.6972L607.443 100.654C619.291 94.0143 626.063 83.8609 626.063 70.6484H610.063ZM596.882 98.123L621.843 135.447L635.143 126.553L610.182 89.2285L596.882 98.123ZM628.493 123H602.243V139H628.493V123ZM609.155 126.972L590.991 95.8004L577.167 103.856L595.331 135.028L609.155 126.972ZM584.079 91.8281H578.219V107.828H584.079V91.8281ZM578.219 90.4258H582.555V74.4258H578.219V90.4258ZM582.555 90.4258C587.606 90.4258 592.888 89.331 596.951 85.7387C601.202 81.9803 602.684 76.7837 602.684 71.7031H586.684C586.684 72.7558 586.533 73.3261 586.441 73.5719C586.397 73.689 586.364 73.7377 586.359 73.7447C586.356 73.7499 586.357 73.7481 586.353 73.7515C586.348 73.7563 586.306 73.7934 586.198 73.8506C586.087 73.9095 585.897 73.9946 585.601 74.0819C584.99 74.2618 584.013 74.4258 582.555 74.4258V90.4258ZM602.684 71.7031C602.684 66.7771 600.903 61.9344 596.485 58.6485C592.512 55.6927 587.514 54.8555 582.79 54.8555V70.8555C584.302 70.8555 585.364 70.9987 586.068 71.1733C586.765 71.346 586.974 71.5144 586.936 71.4863C586.852 71.4241 586.715 71.2706 586.64 71.1038C586.586 70.9828 586.684 71.117 586.684 71.7031H602.684ZM582.79 54.8555H578.219V70.8555H582.79V54.8555ZM570.219 62.8555V82.4258H586.219V62.8555H570.219ZM690.745 131V139H698.745V131H690.745ZM639.886 131H631.886V139H639.886V131ZM639.886 45.3359V37.3359H631.886V45.3359H639.886ZM690.745 45.3359H698.745V37.3359H690.745V45.3359ZM690.745 63.9102V71.9102H698.745V63.9102H690.745ZM663.03 63.9102V55.9102H655.03V63.9102H663.03ZM663.03 77.3867H655.03V85.3867H663.03V77.3867ZM688.695 77.3867H696.695V69.3867H688.695V77.3867ZM688.695 95.9609V103.961H696.695V95.9609H688.695ZM663.03 95.9609V87.9609H655.03V95.9609H663.03ZM663.03 112.133H655.03V120.133H663.03V112.133ZM690.745 112.133H698.745V104.133H690.745V112.133ZM690.745 123H639.886V139H690.745V123ZM647.886 131V45.3359H631.886V131H647.886ZM639.886 53.3359H690.745V37.3359H639.886V53.3359ZM682.745 45.3359V63.9102H698.745V45.3359H682.745ZM690.745 55.9102H663.03V71.9102H690.745V55.9102ZM655.03 63.9102V77.3867H671.03V63.9102H655.03ZM663.03 85.3867H688.695V69.3867H663.03V85.3867ZM680.695 77.3867V95.9609H696.695V77.3867H680.695ZM688.695 87.9609H663.03V103.961H688.695V87.9609ZM655.03 95.9609V112.133H671.03V95.9609H655.03ZM663.03 120.133H690.745V104.133H663.03V120.133ZM682.745 112.133V131H698.745V112.133H682.745ZM804.996 119.398L799.396 113.685L799.389 113.692L799.382 113.699L804.996 119.398ZM744.117 131H736.117V139H744.117V131ZM744.117 45.3359V37.3359H736.117V45.3359H744.117ZM805.582 55.8828L800.095 61.7048L800.103 61.712L800.11 61.7191L805.582 55.8828ZM788.121 69.7109L781.918 74.7629L781.934 74.782L781.949 74.8011L788.121 69.7109ZM767.262 64.0273V56.0273H759.262V64.0273H767.262ZM767.262 112.016H759.262V120.016H767.262V112.016ZM787.887 105.922L794.11 110.949L794.122 110.934L794.134 110.919L787.887 105.922ZM808.832 86.3516C808.832 99.1607 805.336 107.863 799.396 113.685L810.596 125.112C820.437 115.465 824.832 102.136 824.832 86.3516H808.832ZM799.382 113.699C793.43 119.562 784.632 123 771.832 123V139C787.548 139 800.859 134.703 810.61 125.098L799.382 113.699ZM771.832 123H744.117V139H771.832V123ZM752.117 131V45.3359H736.117V131H752.117ZM744.117 53.3359H773.766V37.3359H744.117V53.3359ZM773.766 53.3359C786.187 53.3359 794.566 56.494 800.095 61.7048L811.069 50.0608C801.676 41.2092 788.844 37.3359 773.766 37.3359V53.3359ZM800.11 61.7191C805.56 66.8278 808.832 74.6004 808.832 86.3516H824.832C824.832 71.5402 820.604 59.0003 811.054 50.0465L800.11 61.7191ZM800.809 87.1719C800.809 78.5048 799.126 70.481 794.293 64.6208L781.949 74.8011C783.366 76.519 784.809 80.1358 784.809 87.1719H800.809ZM794.324 64.659C789.293 58.4821 781.968 56.0273 774 56.0273V72.0273C778.689 72.0273 780.777 73.3617 781.918 74.7629L794.324 64.659ZM774 56.0273H767.262V72.0273H774V56.0273ZM759.262 64.0273V112.016H775.262V64.0273H759.262ZM767.262 120.016H772.418V104.016H767.262V120.016ZM772.418 120.016C780.973 120.016 788.826 117.491 794.11 110.949L781.663 100.895C780.385 102.478 777.925 104.016 772.418 104.016V120.016ZM794.134 110.919C799.053 104.77 800.809 96.3713 800.809 87.1719H784.809C784.809 94.7693 783.283 98.8707 781.64 100.924L794.134 110.919ZM858.987 99.8281V91.8281H850.987V99.8281H858.987ZM858.987 131V139H866.987V131H858.987ZM835.842 131H827.842V139H835.842V131ZM835.842 45.3359V37.3359H827.842V45.3359H835.842ZM884.299 93.6758L880.388 86.6972L872.838 90.9287L877.649 98.123L884.299 93.6758ZM909.26 131V139H924.234L915.91 126.553L909.26 131ZM883.01 131L876.098 135.028L878.413 139H883.01V131ZM864.846 99.8281L871.758 95.8004L869.444 91.8281H864.846V99.8281ZM858.987 82.4258H850.987V90.4258H858.987V82.4258ZM858.987 62.8555V54.8555H850.987V62.8555H858.987ZM850.987 99.8281V131H866.987V99.8281H850.987ZM858.987 123H835.842V139H858.987V123ZM843.842 131V45.3359H827.842V131H843.842ZM835.842 53.3359H863.909V37.3359H835.842V53.3359ZM863.909 53.3359C874.821 53.3359 881.562 55.3562 885.405 58.1415C888.77 60.5805 890.83 64.2675 890.83 70.6484H906.83C906.83 60.1544 903.071 51.1851 894.795 45.1867C886.997 39.5345 876.277 37.3359 863.909 37.3359V53.3359ZM890.83 70.6484C890.83 77.2798 887.916 82.4779 880.388 86.6972L888.211 100.654C900.058 94.0143 906.83 83.8609 906.83 70.6484H890.83ZM877.649 98.123L902.61 135.447L915.91 126.553L890.949 89.2285L877.649 98.123ZM909.26 123H883.01V139H909.26V123ZM889.922 126.972L871.758 95.8004L857.934 103.856L876.098 135.028L889.922 126.972ZM864.846 91.8281H858.987V107.828H864.846V91.8281ZM858.987 90.4258H863.323V74.4258H858.987V90.4258ZM863.323 90.4258C868.373 90.4258 873.655 89.331 877.718 85.7387C881.969 81.9803 883.452 76.7837 883.452 71.7031H867.452C867.452 72.7558 867.301 73.3261 867.208 73.5719C867.164 73.689 867.131 73.7377 867.126 73.7447C867.123 73.7499 867.124 73.7481 867.121 73.7515C867.115 73.7563 867.073 73.7934 866.965 73.8506C866.854 73.9095 866.664 73.9946 866.368 74.0819C865.757 74.2618 864.781 74.4258 863.323 74.4258V90.4258ZM883.452 71.7031C883.452 66.7771 881.67 61.9344 877.253 58.6485C873.279 55.6927 868.281 54.8555 863.557 54.8555V70.8555C865.07 70.8555 866.131 70.9987 866.836 71.1733C867.532 71.346 867.741 71.5144 867.703 71.4863C867.62 71.4241 867.482 71.2706 867.408 71.1038C867.353 70.9828 867.452 71.117 867.452 71.7031H883.452ZM863.557 54.8555H858.987V70.8555H863.557V54.8555ZM850.987 62.8555V82.4258H866.987V62.8555H850.987ZM971.512 131V139H979.512V131H971.512ZM920.653 131H912.653V139H920.653V131ZM920.653 45.3359V37.3359H912.653V45.3359H920.653ZM971.512 45.3359H979.512V37.3359H971.512V45.3359ZM971.512 63.9102V71.9102H979.512V63.9102H971.512ZM943.798 63.9102V55.9102H935.798V63.9102H943.798ZM943.798 77.3867H935.798V85.3867H943.798V77.3867ZM969.462 77.3867H977.462V69.3867H969.462V77.3867ZM969.462 95.9609V103.961H977.462V95.9609H969.462ZM943.798 95.9609V87.9609H935.798V95.9609H943.798ZM943.798 112.133H935.798V120.133H943.798V112.133ZM971.512 112.133H979.512V104.133H971.512V112.133ZM971.512 123H920.653V139H971.512V123ZM928.653 131V45.3359H912.653V131H928.653ZM920.653 53.3359H971.512V37.3359H920.653V53.3359ZM963.512 45.3359V63.9102H979.512V45.3359H963.512ZM971.512 55.9102H943.798V71.9102H971.512V55.9102ZM935.798 63.9102V77.3867H951.798V63.9102H935.798ZM943.798 85.3867H969.462V69.3867H943.798V85.3867ZM961.462 77.3867V95.9609H977.462V77.3867H961.462ZM969.462 87.9609H943.798V103.961H969.462V87.9609ZM935.798 95.9609V112.133H951.798V95.9609H935.798ZM943.798 120.133H971.512V104.133H943.798V120.133ZM963.512 112.133V131H979.512V112.133H963.512ZM1042.67 131L1034.93 133.033L1036.5 139H1042.67V131ZM1038.45 114.945L1046.19 112.912L1044.62 106.945H1038.45V114.945ZM1010.62 114.945V106.945H1004.49L1002.9 112.859L1010.62 114.945ZM1006.28 131V139H1012.41L1014.01 133.086L1006.28 131ZM980.855 131L973.246 128.528L969.844 139H980.855V131ZM1008.8 44.9844V36.9844H1002.99L1001.2 42.5122L1008.8 44.9844ZM1039.68 44.9844L1047.28 42.4841L1045.47 36.9844H1039.68V44.9844ZM1067.98 131V139H1079.04L1075.58 128.5L1067.98 131ZM1033.65 95.9609V103.961H1044.02L1041.39 93.9298L1033.65 95.9609ZM1029.96 81.8984L1037.69 79.8673L1037.68 79.8222L1037.67 79.7772L1029.96 81.8984ZM1026.79 69.7695L1019.02 71.6666L1019.03 71.6954L1019.03 71.7242L1026.79 69.7695ZM1024.39 59.1055L1032.26 57.6744L1016.51 57.7152L1024.39 59.1055ZM1022.28 68.9492L1014.49 67.1503L1014.48 67.182L1014.47 67.2138L1022.28 68.9492ZM1015.42 95.9609L1007.69 93.915L1005.03 103.961H1015.42V95.9609ZM1050.41 128.967L1046.19 112.912L1030.72 116.978L1034.93 133.033L1050.41 128.967ZM1038.45 106.945H1010.62V122.945H1038.45V106.945ZM1002.9 112.859L998.561 128.914L1014.01 133.086L1018.34 117.031L1002.9 112.859ZM1006.28 123H980.855V139H1006.28V123ZM988.463 133.472L1016.41 47.4566L1001.2 42.5122L973.246 128.528L988.463 133.472ZM1008.8 52.9844H1039.68V36.9844H1008.8V52.9844ZM1032.08 47.4847L1060.38 133.5L1075.58 128.5L1047.28 42.4841L1032.08 47.4847ZM1067.98 123H1042.67V139H1067.98V123ZM1041.39 93.9298L1037.69 79.8673L1022.22 83.9296L1025.91 97.9921L1041.39 93.9298ZM1037.67 79.7772C1036.83 76.7296 1035.79 72.7479 1034.55 67.8149L1019.03 71.7242C1020.29 76.713 1021.36 80.8173 1022.24 84.0197L1037.67 79.7772ZM1034.56 67.8725C1033.35 62.9172 1032.6 59.5663 1032.26 57.6744L1016.52 60.5366C1016.96 62.9415 1017.81 66.7 1019.02 71.6666L1034.56 67.8725ZM1016.51 57.7152C1016.2 59.4833 1015.54 62.5864 1014.49 67.1503L1030.08 70.7481C1031.13 66.1714 1031.88 62.7121 1032.27 60.4958L1016.51 57.7152ZM1014.47 67.2138C1013.5 71.6025 1011.25 80.453 1007.69 93.915L1023.16 98.0068C1026.71 84.5939 1029.03 75.4365 1030.09 70.6847L1014.47 67.2138ZM1015.42 103.961H1033.65V87.9609H1015.42V103.961ZM1118.22 131L1110.53 133.185L1112.18 139H1118.22V131ZM1100.7 69.3008L1108.4 67.1156L1106.75 61.3008H1100.7V69.3008ZM1100.18 69.3008V61.3008H1091.53L1092.2 69.9234L1100.18 69.3008ZM1101.41 131V139H1109.41V131H1101.41ZM1080.9 131H1072.9V139H1080.9V131ZM1080.9 45.3359V37.3359H1072.9V45.3359H1080.9ZM1111.72 45.3359L1119.4 43.0806L1117.71 37.3359H1111.72V45.3359ZM1129.59 106.156L1121.92 108.412L1123.6 114.156H1129.59V106.156ZM1130.06 106.156V114.156H1136.08L1137.75 108.371L1130.06 106.156ZM1147.58 45.3359V37.3359H1141.56L1139.89 43.1215L1147.58 45.3359ZM1178.46 45.3359H1186.46V37.3359H1178.46V45.3359ZM1178.46 131V139H1186.46V131H1178.46ZM1157.19 131H1149.19V139H1157.19V131ZM1157.25 86.9375L1149.25 86.6753L1149.25 86.7408L1149.25 86.8064L1157.25 86.9375ZM1158.07 69.418L1166.06 69.8208L1166.48 61.418H1158.07V69.418ZM1157.54 69.418V61.418H1151.48L1149.84 67.256L1157.54 69.418ZM1140.26 131V139H1146.32L1147.96 133.162L1140.26 131ZM1125.92 128.815L1108.4 67.1156L1093.01 71.486L1110.53 133.185L1125.92 128.815ZM1100.7 61.3008H1100.18V77.3008H1100.7V61.3008ZM1092.2 69.9234C1093.02 80.361 1093.41 88.2831 1093.41 93.793H1109.41C1109.41 87.6622 1108.98 79.2562 1108.15 68.6781L1092.2 69.9234ZM1093.41 93.793V131H1109.41V93.793H1093.41ZM1101.41 123H1080.9V139H1101.41V123ZM1088.9 131V45.3359H1072.9V131H1088.9ZM1080.9 53.3359H1111.72V37.3359H1080.9V53.3359ZM1104.04 47.5913L1121.92 108.412L1137.27 103.901L1119.4 43.0806L1104.04 47.5913ZM1129.59 114.156H1130.06V98.1562H1129.59V114.156ZM1137.75 108.371L1155.27 47.5503L1139.89 43.1215L1122.37 103.942L1137.75 108.371ZM1147.58 53.3359H1178.46V37.3359H1147.58V53.3359ZM1170.46 45.3359V131H1186.46V45.3359H1170.46ZM1178.46 123H1157.19V139H1178.46V123ZM1165.19 131V93.4414H1149.19V131H1165.19ZM1165.19 93.4414C1165.19 91.5402 1165.21 89.4168 1165.25 87.0686L1149.25 86.8064C1149.21 89.2238 1149.19 91.4363 1149.19 93.4414H1165.19ZM1165.24 87.1997C1165.32 84.9029 1165.59 79.1428 1166.06 69.8208L1150.08 69.0151C1149.61 78.2869 1149.33 84.2065 1149.25 86.6753L1165.24 87.1997ZM1158.07 61.418H1157.54V77.418H1158.07V61.418ZM1149.84 67.256L1132.55 128.838L1147.96 133.162L1165.24 71.5799L1149.84 67.256ZM1140.26 123H1118.22V139H1140.26V123Z" fill="#A5DDFF"/>
</g>
<g filter="url(#filter1_d)">
<path d="M131.756 88.0508C131.756 102.465 128.221 113.422 121.151 120.922C114.08 128.422 103.729 132.172 90.0961 132.172C76.6586 132.172 66.3461 128.402 59.1586 120.863C52.0101 113.324 48.4359 102.348 48.4359 87.9336C48.4359 73.6758 51.9906 62.7969 59.1 55.2969C66.2484 47.7578 76.6195 43.9883 90.2133 43.9883C103.846 43.9883 114.178 47.7188 121.209 55.1797C128.241 62.6406 131.756 73.5977 131.756 88.0508ZM72.8109 88.0508C72.8109 104.613 78.5726 112.895 90.0961 112.895C95.9554 112.895 100.291 110.883 103.104 106.859C105.955 102.836 107.381 96.5664 107.381 88.0508C107.381 79.4961 105.936 73.1875 103.045 69.125C100.194 65.0234 95.9164 62.9727 90.2133 62.9727C78.6117 62.9727 72.8109 71.332 72.8109 88.0508ZM173.618 131H150.825V45.3359H201.45V63.9102H173.618V80.2578H199.282V98.832H173.618V131ZM241.905 131H219.112V45.3359H269.737V63.9102H241.905V80.2578H267.57V98.832H241.905V131ZM343.416 104.984C343.416 110.297 342.068 115.023 339.373 119.164C336.677 123.266 332.791 126.469 327.712 128.773C322.634 131.039 316.677 132.172 309.841 132.172C304.138 132.172 299.353 131.781 295.486 131C291.619 130.18 287.595 128.773 283.416 126.781V106.156C287.83 108.422 292.42 110.199 297.185 111.488C301.951 112.738 306.326 113.363 310.31 113.363C313.748 113.363 316.267 112.777 317.869 111.605C319.47 110.395 320.271 108.852 320.271 106.977C320.271 105.805 319.939 104.789 319.275 103.93C318.65 103.031 317.615 102.133 316.17 101.234C314.763 100.336 310.974 98.5 304.802 95.7266C299.216 93.1875 295.017 90.7266 292.205 88.3438C289.431 85.9609 287.361 83.2266 285.994 80.1406C284.666 77.0547 284.002 73.4023 284.002 69.1836C284.002 61.293 286.873 55.1406 292.615 50.7266C298.357 46.3125 306.248 44.1055 316.287 44.1055C325.154 44.1055 334.197 46.1562 343.416 50.2578L336.326 68.1289C328.318 64.457 321.404 62.6211 315.584 62.6211C312.576 62.6211 310.388 63.1484 309.021 64.2031C307.654 65.2578 306.97 66.5664 306.97 68.1289C306.97 69.8086 307.83 71.3125 309.548 72.6406C311.306 73.9688 316.033 76.3906 323.728 79.9062C331.111 83.2266 336.228 86.8008 339.08 90.6289C341.97 94.418 343.416 99.2031 343.416 104.984ZM433.676 131H410.414V96.0781H383.52V131H360.258V45.3359H383.52V77.0938H410.414V45.3359H433.676V131ZM536.006 88.0508C536.006 102.465 532.471 113.422 525.401 120.922C518.33 128.422 507.979 132.172 494.346 132.172C480.909 132.172 470.596 128.402 463.409 120.863C456.26 113.324 452.686 102.348 452.686 87.9336C452.686 73.6758 456.241 62.7969 463.35 55.2969C470.498 47.7578 480.87 43.9883 494.463 43.9883C508.096 43.9883 518.428 47.7188 525.459 55.1797C532.491 62.6406 536.006 73.5977 536.006 88.0508ZM477.061 88.0508C477.061 104.613 482.823 112.895 494.346 112.895C500.205 112.895 504.541 110.883 507.354 106.859C510.205 102.836 511.631 96.5664 511.631 88.0508C511.631 79.4961 510.186 73.1875 507.295 69.125C504.444 65.0234 500.166 62.9727 494.463 62.9727C482.862 62.9727 477.061 71.332 477.061 88.0508ZM578.22 99.8281V131H555.075V45.3359H583.141C606.423 45.3359 618.063 53.7734 618.063 70.6484C618.063 80.5703 613.22 88.2461 603.532 93.6758L628.493 131H602.243L584.079 99.8281H578.22ZM578.22 82.4258H582.555C590.641 82.4258 594.684 78.8516 594.684 71.7031C594.684 65.8047 590.72 62.8555 582.79 62.8555H578.22V82.4258ZM690.745 131H639.886V45.3359H690.745V63.9102H663.03V77.3867H688.695V95.9609H663.03V112.133H690.745V131ZM816.832 86.3516C816.832 100.648 812.887 111.664 804.996 119.398C797.145 127.133 786.09 131 771.832 131H744.117V45.3359H773.766C787.516 45.3359 798.121 48.8516 805.582 55.8828C813.082 62.9141 816.832 73.0703 816.832 86.3516ZM792.809 87.1719C792.809 79.3203 791.246 73.5 788.121 69.7109C785.035 65.9219 780.328 64.0273 774 64.0273H767.262V112.016H772.418C779.449 112.016 784.605 109.984 787.887 105.922C791.168 101.82 792.809 95.5703 792.809 87.1719ZM858.987 99.8281V131H835.842V45.3359H863.909C887.19 45.3359 898.83 53.7734 898.83 70.6484C898.83 80.5703 893.987 88.2461 884.299 93.6758L909.26 131H883.01L864.846 99.8281H858.987ZM858.987 82.4258H863.323C871.409 82.4258 875.452 78.8516 875.452 71.7031C875.452 65.8047 871.487 62.8555 863.557 62.8555H858.987V82.4258ZM971.512 131H920.653V45.3359H971.512V63.9102H943.798V77.3867H969.462V95.9609H943.798V112.133H971.512V131ZM1042.67 131L1038.45 114.945H1010.62L1006.28 131H980.855L1008.8 44.9844H1039.68L1067.98 131H1042.67ZM1033.65 95.9609L1029.96 81.8984C1029.1 78.7734 1028.04 74.7305 1026.79 69.7695C1025.58 64.8086 1024.78 61.2539 1024.39 59.1055C1024.04 61.0977 1023.34 64.3789 1022.28 68.9492C1021.26 73.5195 1018.98 82.5234 1015.42 95.9609H1033.65ZM1118.22 131L1100.7 69.3008H1100.18C1101 79.8086 1101.41 87.9727 1101.41 93.793V131H1080.9V45.3359H1111.72L1129.59 106.156H1130.06L1147.58 45.3359H1178.46V131H1157.19V93.4414C1157.19 91.4883 1157.21 89.3203 1157.25 86.9375C1157.33 84.5547 1157.6 78.7148 1158.07 69.418H1157.54L1140.26 131H1118.22Z" fill="white"/>
<path d="M59.1586 120.863L56.2559 123.616L56.2634 123.623L59.1586 120.863ZM59.1 55.2969L56.1974 52.5446L56.197 52.5451L59.1 55.2969ZM103.104 106.859L99.8404 104.546L99.8329 104.557L99.8255 104.568L103.104 106.859ZM103.045 69.125L99.761 71.4083L99.7735 71.4262L99.7861 71.444L103.045 69.125ZM127.756 88.0508C127.756 101.854 124.373 111.672 118.24 118.178L124.061 123.666C132.069 115.171 135.756 103.076 135.756 88.0508H127.756ZM118.24 118.178C112.148 124.641 102.999 128.172 90.0961 128.172V136.172C104.459 136.172 116.013 132.203 124.061 123.666L118.24 118.178ZM90.0961 128.172C77.4184 128.172 68.2832 124.637 62.0537 118.103L56.2634 123.623C64.4089 132.167 75.8987 136.172 90.0961 136.172V128.172ZM62.0612 118.111C55.8518 111.562 52.4359 101.724 52.4359 87.9336H44.4359C44.4359 102.971 48.1685 115.086 56.2559 123.616L62.0612 118.111ZM52.4359 87.9336C52.4359 74.3062 55.8287 64.5622 62.003 58.0487L56.197 52.5451C48.1525 61.0316 44.4359 73.0454 44.4359 87.9336H52.4359ZM62.0026 58.0491C68.182 51.5321 77.3622 47.9883 90.2133 47.9883V39.9883C75.8768 39.9883 64.3149 43.9835 56.1974 52.5446L62.0026 58.0491ZM90.2133 47.9883C103.123 47.9883 112.249 51.5037 118.298 57.923L124.12 52.4363C116.107 43.9338 104.569 39.9883 90.2133 39.9883V47.9883ZM118.298 57.923C124.388 64.3844 127.756 74.1982 127.756 88.0508H135.756C135.756 72.9971 132.094 60.8968 124.12 52.4363L118.298 57.923ZM68.8109 88.0508C68.8109 96.6727 70.2883 103.851 73.8487 108.968C77.5926 114.349 83.2406 116.895 90.0961 116.895V108.895C85.4281 108.895 82.4336 107.299 80.4157 104.399C78.2144 101.235 76.8109 95.9914 76.8109 88.0508H68.8109ZM90.0961 116.895C96.9732 116.895 102.67 114.462 106.382 109.151L99.8255 104.568C97.9126 107.304 94.9377 108.895 90.0961 108.895V116.895ZM106.367 109.172C109.935 104.138 111.381 96.8587 111.381 88.0508H103.381C103.381 96.2741 101.976 101.534 99.8404 104.546L106.367 109.172ZM111.381 88.0508C111.381 79.1964 109.913 71.8781 106.304 66.806L99.7861 71.444C101.958 74.4969 103.381 79.7958 103.381 88.0508H111.381ZM106.33 66.8417C102.616 61.4996 97.0113 58.9727 90.2133 58.9727V66.9727C94.8214 66.9727 97.7719 68.5473 99.761 71.4083L106.33 66.8417ZM90.2133 58.9727C83.3144 58.9727 77.6368 61.5411 73.8752 66.9618C70.2976 72.1174 68.8109 79.3522 68.8109 88.0508H76.8109C76.8109 80.0306 78.2246 74.7264 80.4478 71.5226C82.487 68.5839 85.5105 66.9727 90.2133 66.9727V58.9727ZM173.618 131V135H177.618V131H173.618ZM150.825 131H146.825V135H150.825V131ZM150.825 45.3359V41.3359H146.825V45.3359H150.825ZM201.45 45.3359H205.45V41.3359H201.45V45.3359ZM201.45 63.9102V67.9102H205.45V63.9102H201.45ZM173.618 63.9102V59.9102H169.618V63.9102H173.618ZM173.618 80.2578H169.618V84.2578H173.618V80.2578ZM199.282 80.2578H203.282V76.2578H199.282V80.2578ZM199.282 98.832V102.832H203.282V98.832H199.282ZM173.618 98.832V94.832H169.618V98.832H173.618ZM173.618 127H150.825V135H173.618V127ZM154.825 131V45.3359H146.825V131H154.825ZM150.825 49.3359H201.45V41.3359H150.825V49.3359ZM197.45 45.3359V63.9102H205.45V45.3359H197.45ZM201.45 59.9102H173.618V67.9102H201.45V59.9102ZM169.618 63.9102V80.2578H177.618V63.9102H169.618ZM173.618 84.2578H199.282V76.2578H173.618V84.2578ZM195.282 80.2578V98.832H203.282V80.2578H195.282ZM199.282 94.832H173.618V102.832H199.282V94.832ZM169.618 98.832V131H177.618V98.832H169.618ZM241.905 131V135H245.905V131H241.905ZM219.112 131H215.112V135H219.112V131ZM219.112 45.3359V41.3359H215.112V45.3359H219.112ZM269.737 45.3359H273.737V41.3359H269.737V45.3359ZM269.737 63.9102V67.9102H273.737V63.9102H269.737ZM241.905 63.9102V59.9102H237.905V63.9102H241.905ZM241.905 80.2578H237.905V84.2578H241.905V80.2578ZM267.57 80.2578H271.57V76.2578H267.57V80.2578ZM267.57 98.832V102.832H271.57V98.832H267.57ZM241.905 98.832V94.832H237.905V98.832H241.905ZM241.905 127H219.112V135H241.905V127ZM223.112 131V45.3359H215.112V131H223.112ZM219.112 49.3359H269.737V41.3359H219.112V49.3359ZM265.737 45.3359V63.9102H273.737V45.3359H265.737ZM269.737 59.9102H241.905V67.9102H269.737V59.9102ZM237.905 63.9102V80.2578H245.905V63.9102H237.905ZM241.905 84.2578H267.57V76.2578H241.905V84.2578ZM263.57 80.2578V98.832H271.57V80.2578H263.57ZM267.57 94.832H241.905V102.832H267.57V94.832ZM237.905 98.832V131H245.905V98.832H237.905ZM339.373 119.164L342.715 121.361L342.72 121.354L342.725 121.346L339.373 119.164ZM327.712 128.773L329.342 132.426L329.354 132.421L329.366 132.416L327.712 128.773ZM295.486 131L294.656 134.913L294.675 134.917L294.694 134.921L295.486 131ZM283.416 126.781H279.416V129.306L281.695 130.392L283.416 126.781ZM283.416 106.156L285.242 102.598L279.416 99.607V106.156H283.416ZM297.185 111.488L296.141 115.35L296.155 115.354L296.17 115.357L297.185 111.488ZM317.869 111.605L320.231 114.834L320.256 114.815L320.281 114.796L317.869 111.605ZM319.275 103.93L315.991 106.214L316.049 106.296L316.11 106.375L319.275 103.93ZM316.169 101.234L314.016 104.605L314.037 104.618L314.058 104.632L316.169 101.234ZM304.802 95.7266L303.147 99.368L303.155 99.3716L303.163 99.3751L304.802 95.7266ZM292.205 88.3438L289.598 91.3778L289.608 91.3868L289.619 91.3957L292.205 88.3438ZM285.994 80.1406L282.32 81.7219L282.328 81.7414L282.337 81.7609L285.994 80.1406ZM343.416 50.2578L347.134 51.7329L348.55 48.164L345.042 46.6032L343.416 50.2578ZM336.326 68.1289L334.659 71.7649L338.49 73.5216L340.044 69.604L336.326 68.1289ZM309.548 72.6406L307.103 75.8058L307.12 75.819L307.137 75.8321L309.548 72.6406ZM323.728 79.9062L322.066 83.5445L322.077 83.5495L322.087 83.5543L323.728 79.9062ZM339.08 90.6289L335.872 93.0184L335.886 93.0368L335.899 93.0551L339.08 90.6289ZM339.416 104.984C339.416 109.583 338.261 113.54 336.02 116.982L342.725 121.346C345.875 116.507 347.416 111.011 347.416 104.984H339.416ZM336.03 116.967C333.804 120.354 330.545 123.095 326.059 125.131L329.366 132.416C335.036 129.842 339.55 126.177 342.715 121.361L336.03 116.967ZM326.083 125.121C321.621 127.111 316.241 128.172 309.841 128.172V136.172C317.113 136.172 323.648 134.967 329.342 132.426L326.083 125.121ZM309.841 128.172C304.298 128.172 299.797 127.79 296.278 127.079L294.694 134.921C298.909 135.772 303.979 136.172 309.841 136.172V128.172ZM296.316 127.087C292.804 126.342 289.079 125.05 285.137 123.17L281.695 130.392C286.111 132.497 290.434 134.017 294.656 134.913L296.316 127.087ZM287.416 126.781V106.156H279.416V126.781H287.416ZM281.589 109.715C286.251 112.108 291.103 113.987 296.141 115.35L298.23 107.627C293.736 106.412 289.408 104.736 285.242 102.598L281.589 109.715ZM296.17 115.357C301.193 116.675 305.914 117.363 310.31 117.363V109.363C306.738 109.363 302.709 108.802 298.2 107.619L296.17 115.357ZM310.31 117.363C314.042 117.363 317.602 116.757 320.231 114.834L315.507 108.377C314.933 108.797 313.453 109.363 310.31 109.363V117.363ZM320.281 114.796C322.8 112.891 324.271 110.205 324.271 106.977H316.271C316.271 107.498 316.14 107.898 315.456 108.415L320.281 114.796ZM324.271 106.977C324.271 104.994 323.689 103.1 322.44 101.484L316.11 106.375C316.189 106.478 316.271 106.615 316.271 106.977H324.271ZM322.559 101.645C321.499 100.122 319.959 98.8804 318.281 97.8372L314.058 104.632C315.27 105.385 315.801 105.941 315.991 106.214L322.559 101.645ZM318.323 97.8636C316.613 96.7713 312.511 94.8052 306.442 92.078L303.163 99.3751C309.438 102.195 312.913 103.901 314.016 104.605L318.323 97.8636ZM306.458 92.0851C301.016 89.6119 297.197 87.3306 294.79 85.2918L289.619 91.3957C292.838 94.1226 297.416 96.7631 303.147 99.368L306.458 92.0851ZM294.811 85.3097C292.451 83.2815 290.758 81.0186 289.651 78.5204L282.337 81.7609C283.964 85.4345 286.412 88.6404 289.598 91.3778L294.811 85.3097ZM289.668 78.5593C288.602 76.0831 288.002 72.993 288.002 69.1836H280.002C280.002 73.8117 280.729 78.0263 282.32 81.7219L289.668 78.5593ZM288.002 69.1836C288.002 62.4073 290.393 57.48 295.053 53.8979L290.177 47.5553C283.353 52.8012 280.002 60.1787 280.002 69.1836H288.002ZM295.053 53.8979C299.87 50.1945 306.795 48.1055 316.287 48.1055V40.1055C305.7 40.1055 296.844 42.4305 290.177 47.5553L295.053 53.8979ZM316.287 48.1055C324.521 48.1055 333.012 50.0072 341.79 53.9124L345.042 46.6032C335.381 42.3053 325.786 40.1055 316.287 40.1055V48.1055ZM339.698 48.7828L332.608 66.6539L340.044 69.604L347.134 51.7329L339.698 48.7828ZM337.993 64.4929C329.706 60.693 322.198 58.6211 315.584 58.6211V66.6211C320.61 66.6211 326.93 68.2211 334.659 71.7649L337.993 64.4929ZM315.584 58.6211C312.279 58.6211 308.999 59.1679 306.578 61.036L311.464 67.3703C311.777 67.129 312.872 66.6211 315.584 66.6211V58.6211ZM306.578 61.036C304.347 62.7568 302.97 65.1843 302.97 68.1289H310.97C310.97 67.9539 311.003 67.8769 311.028 67.8277C311.061 67.7661 311.162 67.6036 311.464 67.3703L306.578 61.036ZM302.97 68.1289C302.97 71.3959 304.717 73.9623 307.103 75.8058L311.994 69.4755C310.942 68.6627 310.97 68.2213 310.97 68.1289H302.97ZM307.137 75.8321C308.323 76.7278 310.225 77.8024 312.588 79.013C315.026 80.2624 318.192 81.7745 322.066 83.5445L325.39 76.268C321.569 74.5224 318.524 73.0658 316.236 71.8932C313.872 70.682 312.532 69.8816 311.96 69.4492L307.137 75.8321ZM322.087 83.5543C329.229 86.7659 333.619 89.9937 335.872 93.0184L342.288 88.2394C338.837 83.6079 332.993 79.6872 325.369 76.2582L322.087 83.5543ZM335.899 93.0551C338.153 96.0086 339.416 99.888 339.416 104.984H347.416C347.416 98.5183 345.788 92.8274 342.26 88.2028L335.899 93.0551ZM433.676 131V135H437.676V131H433.676ZM410.414 131H406.414V135H410.414V131ZM410.414 96.0781H414.414V92.0781H410.414V96.0781ZM383.52 96.0781V92.0781H379.52V96.0781H383.52ZM383.52 131V135H387.52V131H383.52ZM360.258 131H356.258V135H360.258V131ZM360.258 45.3359V41.3359H356.258V45.3359H360.258ZM383.52 45.3359H387.52V41.3359H383.52V45.3359ZM383.52 77.0938H379.52V81.0938H383.52V77.0938ZM410.414 77.0938V81.0938H414.414V77.0938H410.414ZM410.414 45.3359V41.3359H406.414V45.3359H410.414ZM433.676 45.3359H437.676V41.3359H433.676V45.3359ZM433.676 127H410.414V135H433.676V127ZM414.414 131V96.0781H406.414V131H414.414ZM410.414 92.0781H383.52V100.078H410.414V92.0781ZM379.52 96.0781V131H387.52V96.0781H379.52ZM383.52 127H360.258V135H383.52V127ZM364.258 131V45.3359H356.258V131H364.258ZM360.258 49.3359H383.52V41.3359H360.258V49.3359ZM379.52 45.3359V77.0938H387.52V45.3359H379.52ZM383.52 81.0938H410.414V73.0938H383.52V81.0938ZM414.414 77.0938V45.3359H406.414V77.0938H414.414ZM410.414 49.3359H433.676V41.3359H410.414V49.3359ZM429.676 45.3359V131H437.676V45.3359H429.676ZM463.409 120.863L460.506 123.616L460.513 123.623L463.409 120.863ZM463.35 55.2969L460.447 52.5446L460.447 52.5451L463.35 55.2969ZM507.354 106.859L504.09 104.546L504.083 104.557L504.075 104.568L507.354 106.859ZM507.295 69.125L504.011 71.4083L504.023 71.4262L504.036 71.444L507.295 69.125ZM532.006 88.0508C532.006 101.854 528.623 111.672 522.49 118.178L528.311 123.666C536.319 115.171 540.006 103.076 540.006 88.0508H532.006ZM522.49 118.178C516.398 124.641 507.249 128.172 494.346 128.172V136.172C508.709 136.172 520.263 132.203 528.311 123.666L522.49 118.178ZM494.346 128.172C481.668 128.172 472.533 124.637 466.304 118.103L460.513 123.623C468.659 132.167 480.149 136.172 494.346 136.172V128.172ZM466.311 118.111C460.102 111.562 456.686 101.724 456.686 87.9336H448.686C448.686 102.971 452.418 115.086 460.506 123.616L466.311 118.111ZM456.686 87.9336C456.686 74.3062 460.079 64.5622 466.253 58.0487L460.447 52.5451C452.402 61.0316 448.686 73.0454 448.686 87.9336H456.686ZM466.253 58.0491C472.432 51.5321 481.612 47.9883 494.463 47.9883V39.9883C480.127 39.9883 468.565 43.9835 460.447 52.5446L466.253 58.0491ZM494.463 47.9883C507.373 47.9883 516.499 51.5037 522.548 57.923L528.37 52.4363C520.358 43.9338 508.819 39.9883 494.463 39.9883V47.9883ZM522.548 57.923C528.638 64.3844 532.006 74.1982 532.006 88.0508H540.006C540.006 72.9971 536.344 60.8968 528.37 52.4363L522.548 57.923ZM473.061 88.0508C473.061 96.6727 474.538 103.851 478.099 108.968C481.843 114.349 487.491 116.895 494.346 116.895V108.895C489.678 108.895 486.684 107.299 484.666 104.399C482.464 101.235 481.061 95.9914 481.061 88.0508H473.061ZM494.346 116.895C501.223 116.895 506.92 114.462 510.632 109.151L504.075 104.568C502.163 107.304 499.188 108.895 494.346 108.895V116.895ZM510.617 109.172C514.185 104.138 515.631 96.8587 515.631 88.0508H507.631C507.631 96.2741 506.225 101.534 504.09 104.546L510.617 109.172ZM515.631 88.0508C515.631 79.1964 514.163 71.8781 510.554 66.806L504.036 71.444C506.208 74.4969 507.631 79.7958 507.631 88.0508H515.631ZM510.58 66.8417C506.866 61.4996 501.261 58.9727 494.463 58.9727V66.9727C499.071 66.9727 502.022 68.5473 504.011 71.4083L510.58 66.8417ZM494.463 58.9727C487.564 58.9727 481.887 61.5411 478.125 66.9618C474.548 72.1174 473.061 79.3522 473.061 88.0508H481.061C481.061 80.0306 482.475 74.7264 484.698 71.5226C486.737 68.5839 489.761 66.9727 494.463 66.9727V58.9727ZM578.219 99.8281V95.8281H574.219V99.8281H578.219ZM578.219 131V135H582.219V131H578.219ZM555.075 131H551.075V135H555.075V131ZM555.075 45.3359V41.3359H551.075V45.3359H555.075ZM603.532 93.6758L601.576 90.1865L597.801 92.3023L600.207 95.8994L603.532 93.6758ZM628.493 131V135H635.98L631.818 128.776L628.493 131ZM602.243 131L598.787 133.014L599.944 135H602.243V131ZM584.079 99.8281L587.535 97.8143L586.378 95.8281H584.079V99.8281ZM578.219 82.4258H574.219V86.4258H578.219V82.4258ZM578.219 62.8555V58.8555H574.219V62.8555H578.219ZM574.219 99.8281V131H582.219V99.8281H574.219ZM578.219 127H555.075V135H578.219V127ZM559.075 131V45.3359H551.075V131H559.075ZM555.075 49.3359H583.141V41.3359H555.075V49.3359ZM583.141 49.3359C594.418 49.3359 602.154 51.4007 606.985 54.9028C611.578 58.2317 614.063 63.2392 614.063 70.6484H622.063C622.063 61.1827 618.728 53.534 611.68 48.4254C604.871 43.4899 595.146 41.3359 583.141 41.3359V49.3359ZM614.063 70.6484C614.063 78.925 610.184 85.362 601.576 90.1865L605.488 97.1651C616.255 91.1302 622.063 82.2156 622.063 70.6484H614.063ZM600.207 95.8994L625.168 133.224L631.818 128.776L606.857 91.4522L600.207 95.8994ZM628.493 127H602.243V135H628.493V127ZM605.699 128.986L587.535 97.8143L580.623 101.842L598.787 133.014L605.699 128.986ZM584.079 95.8281H578.219V103.828H584.079V95.8281ZM578.219 86.4258H582.555V78.4258H578.219V86.4258ZM582.555 86.4258C587.102 86.4258 591.259 85.4316 594.302 82.7419C597.438 79.9691 598.684 76.0305 598.684 71.7031H590.684C590.684 74.5242 589.909 75.9469 589.003 76.7483C588.002 77.6328 586.095 78.4258 582.555 78.4258V86.4258ZM598.684 71.7031C598.684 67.7655 597.298 64.2382 594.098 61.8579C591.12 59.6428 587.134 58.8555 582.79 58.8555V66.8555C586.375 66.8555 588.337 67.5428 589.323 68.2768C590.088 68.8458 590.684 69.7423 590.684 71.7031H598.684ZM582.79 58.8555H578.219V66.8555H582.79V58.8555ZM574.219 62.8555V82.4258H582.219V62.8555H574.219ZM690.745 131V135H694.745V131H690.745ZM639.886 131H635.886V135H639.886V131ZM639.886 45.3359V41.3359H635.886V45.3359H639.886ZM690.745 45.3359H694.745V41.3359H690.745V45.3359ZM690.745 63.9102V67.9102H694.745V63.9102H690.745ZM663.03 63.9102V59.9102H659.03V63.9102H663.03ZM663.03 77.3867H659.03V81.3867H663.03V77.3867ZM688.695 77.3867H692.695V73.3867H688.695V77.3867ZM688.695 95.9609V99.9609H692.695V95.9609H688.695ZM663.03 95.9609V91.9609H659.03V95.9609H663.03ZM663.03 112.133H659.03V116.133H663.03V112.133ZM690.745 112.133H694.745V108.133H690.745V112.133ZM690.745 127H639.886V135H690.745V127ZM643.886 131V45.3359H635.886V131H643.886ZM639.886 49.3359H690.745V41.3359H639.886V49.3359ZM686.745 45.3359V63.9102H694.745V45.3359H686.745ZM690.745 59.9102H663.03V67.9102H690.745V59.9102ZM659.03 63.9102V77.3867H667.03V63.9102H659.03ZM663.03 81.3867H688.695V73.3867H663.03V81.3867ZM684.695 77.3867V95.9609H692.695V77.3867H684.695ZM688.695 91.9609H663.03V99.9609H688.695V91.9609ZM659.03 95.9609V112.133H667.03V95.9609H659.03ZM663.03 116.133H690.745V108.133H663.03V116.133ZM686.745 112.133V131H694.745V112.133H686.745ZM804.996 119.398L802.196 116.542L802.189 116.549L804.996 119.398ZM744.117 131H740.117V135H744.117V131ZM744.117 45.3359V41.3359H740.117V45.3359H744.117ZM805.582 55.8828L802.839 58.7938L802.846 58.801L805.582 55.8828ZM788.121 69.7109L785.02 72.2369L785.027 72.2465L785.035 72.256L788.121 69.7109ZM767.262 64.0273V60.0273H763.262V64.0273H767.262ZM767.262 112.016H763.262V116.016H767.262V112.016ZM787.887 105.922L790.998 108.435L791.004 108.428L791.01 108.421L787.887 105.922ZM812.832 86.3516C812.832 99.9045 809.111 109.764 802.196 116.542L807.796 122.255C816.662 113.565 820.832 101.392 820.832 86.3516H812.832ZM802.189 116.549C795.287 123.348 785.361 127 771.832 127V135C786.819 135 799.002 130.918 807.803 122.248L802.189 116.549ZM771.832 127H744.117V135H771.832V127ZM748.117 131V45.3359H740.117V131H748.117ZM744.117 49.3359H773.766V41.3359H744.117V49.3359ZM773.766 49.3359C786.851 49.3359 796.344 52.6728 802.839 58.7938L808.325 52.9718C799.899 45.0304 788.18 41.3359 773.766 41.3359V49.3359ZM802.846 58.801C809.321 64.8709 812.832 73.8354 812.832 86.3516H820.832C820.832 72.3053 816.843 60.9572 808.318 52.9647L802.846 58.801ZM796.809 87.1719C796.809 78.9126 795.186 71.9905 791.207 67.1659L785.035 72.256C787.306 75.0095 788.809 79.7281 788.809 87.1719H796.809ZM791.223 67.185C787.164 62.202 781.148 60.0273 774 60.0273V68.0273C779.508 68.0273 782.906 69.6418 785.02 72.2369L791.223 67.185ZM774 60.0273H767.262V68.0273H774V60.0273ZM763.262 64.0273V112.016H771.262V64.0273H763.262ZM767.262 116.016H772.418V108.016H767.262V116.016ZM772.418 116.016C780.211 116.016 786.716 113.738 790.998 108.435L784.775 103.409C782.495 106.231 778.687 108.016 772.418 108.016V116.016ZM791.01 108.421C795.111 103.295 796.809 95.9708 796.809 87.1719H788.809C788.809 95.1698 787.225 100.345 784.763 103.423L791.01 108.421ZM858.987 99.8281V95.8281H854.987V99.8281H858.987ZM858.987 131V135H862.987V131H858.987ZM835.842 131H831.842V135H835.842V131ZM835.842 45.3359V41.3359H831.842V45.3359H835.842ZM884.299 93.6758L882.344 90.1865L878.569 92.3023L880.974 95.8994L884.299 93.6758ZM909.26 131V135H916.747L912.585 128.776L909.26 131ZM883.01 131L879.554 133.014L880.711 135H883.01V131ZM864.846 99.8281L868.302 97.8143L867.145 95.8281H864.846V99.8281ZM858.987 82.4258H854.987V86.4258H858.987V82.4258ZM858.987 62.8555V58.8555H854.987V62.8555H858.987ZM854.987 99.8281V131H862.987V99.8281H854.987ZM858.987 127H835.842V135H858.987V127ZM839.842 131V45.3359H831.842V131H839.842ZM835.842 49.3359H863.909V41.3359H835.842V49.3359ZM863.909 49.3359C875.185 49.3359 882.921 51.4007 887.752 54.9028C892.345 58.2317 894.83 63.2392 894.83 70.6484H902.83C902.83 61.1827 899.495 53.534 892.448 48.4254C885.638 43.4899 875.913 41.3359 863.909 41.3359V49.3359ZM894.83 70.6484C894.83 78.925 890.951 85.362 882.344 90.1865L886.255 97.1651C897.022 91.1302 902.83 82.2156 902.83 70.6484H894.83ZM880.974 95.8994L905.935 133.224L912.585 128.776L887.624 91.4522L880.974 95.8994ZM909.26 127H883.01V135H909.26V127ZM886.466 128.986L868.302 97.8143L861.39 101.842L879.554 133.014L886.466 128.986ZM864.846 95.8281H858.987V103.828H864.846V95.8281ZM858.987 86.4258H863.323V78.4258H858.987V86.4258ZM863.323 86.4258C867.869 86.4258 872.026 85.4316 875.069 82.7419C878.205 79.9691 879.452 76.0305 879.452 71.7031H871.452C871.452 74.5242 870.676 75.9469 869.77 76.7483C868.769 77.6328 866.862 78.4258 863.323 78.4258V86.4258ZM879.452 71.7031C879.452 67.7655 878.065 64.2382 874.865 61.8579C871.887 59.6428 867.901 58.8555 863.557 58.8555V66.8555C867.142 66.8555 869.104 67.5428 870.091 68.2768C870.855 68.8458 871.452 69.7423 871.452 71.7031H879.452ZM863.557 58.8555H858.987V66.8555H863.557V58.8555ZM854.987 62.8555V82.4258H862.987V62.8555H854.987ZM971.512 131V135H975.512V131H971.512ZM920.653 131H916.653V135H920.653V131ZM920.653 45.3359V41.3359H916.653V45.3359H920.653ZM971.512 45.3359H975.512V41.3359H971.512V45.3359ZM971.512 63.9102V67.9102H975.512V63.9102H971.512ZM943.798 63.9102V59.9102H939.798V63.9102H943.798ZM943.798 77.3867H939.798V81.3867H943.798V77.3867ZM969.462 77.3867H973.462V73.3867H969.462V77.3867ZM969.462 95.9609V99.9609H973.462V95.9609H969.462ZM943.798 95.9609V91.9609H939.798V95.9609H943.798ZM943.798 112.133H939.798V116.133H943.798V112.133ZM971.512 112.133H975.512V108.133H971.512V112.133ZM971.512 127H920.653V135H971.512V127ZM924.653 131V45.3359H916.653V131H924.653ZM920.653 49.3359H971.512V41.3359H920.653V49.3359ZM967.512 45.3359V63.9102H975.512V45.3359H967.512ZM971.512 59.9102H943.798V67.9102H971.512V59.9102ZM939.798 63.9102V77.3867H947.798V63.9102H939.798ZM943.798 81.3867H969.462V73.3867H943.798V81.3867ZM965.462 77.3867V95.9609H973.462V77.3867H965.462ZM969.462 91.9609H943.798V99.9609H969.462V91.9609ZM939.798 95.9609V112.133H947.798V95.9609H939.798ZM943.798 116.133H971.512V108.133H943.798V116.133ZM967.512 112.133V131H975.512V112.133H967.512ZM1042.67 131L1038.8 132.017L1039.59 135H1042.67V131ZM1038.45 114.945L1042.32 113.929L1041.54 110.945H1038.45V114.945ZM1010.62 114.945V110.945H1007.56L1006.76 113.902L1010.62 114.945ZM1006.28 131V135H1009.35L1010.15 132.043L1006.28 131ZM980.855 131L977.05 129.764L975.349 135H980.855V131ZM1008.8 44.9844V40.9844H1005.9L1005 43.7483L1008.8 44.9844ZM1039.68 44.9844L1043.48 43.7342L1042.58 40.9844H1039.68V44.9844ZM1067.98 131V135H1073.51L1071.78 129.75L1067.98 131ZM1033.65 95.9609V99.9609H1038.83L1037.52 94.9453L1033.65 95.9609ZM1029.96 81.8984L1033.83 80.8828L1033.82 80.8603L1033.81 80.8378L1029.96 81.8984ZM1026.79 69.7695L1022.91 70.7181L1022.91 70.7325L1022.91 70.7469L1026.79 69.7695ZM1024.39 59.1055L1028.33 58.3899L1020.45 58.4103L1024.39 59.1055ZM1022.28 68.9492L1018.38 68.0498L1018.38 68.0656L1018.38 68.0815L1022.28 68.9492ZM1015.42 95.9609L1011.56 94.938L1010.23 99.9609H1015.42V95.9609ZM1046.54 129.983L1042.32 113.929L1034.58 115.962L1038.8 132.017L1046.54 129.983ZM1038.45 110.945H1010.62V118.945H1038.45V110.945ZM1006.76 113.902L1002.42 129.957L1010.15 132.043L1014.48 115.988L1006.76 113.902ZM1006.28 127H980.855V135H1006.28V127ZM984.659 132.236L1012.61 46.2205L1005 43.7483L977.05 129.764L984.659 132.236ZM1008.8 48.9844H1039.68V40.9844H1008.8V48.9844ZM1035.88 46.2345L1064.18 132.25L1071.78 129.75L1043.48 43.7342L1035.88 46.2345ZM1067.98 127H1042.67V135H1067.98V127ZM1037.52 94.9453L1033.83 80.8828L1026.09 82.914L1029.78 96.9765L1037.52 94.9453ZM1033.81 80.8378C1032.96 77.7515 1031.92 73.7392 1030.67 68.7922L1022.91 70.7469C1024.17 75.7217 1025.23 79.7953 1026.1 82.9591L1033.81 80.8378ZM1030.68 68.821C1029.47 63.8629 1028.69 60.4101 1028.33 58.3899L1020.45 59.821C1020.87 62.0977 1021.69 65.7543 1022.91 70.7181L1030.68 68.821ZM1020.45 58.4103C1020.12 60.2905 1019.44 63.4827 1018.38 68.0498L1026.18 69.8487C1027.23 65.2752 1027.96 61.9049 1028.33 59.8006L1020.45 58.4103ZM1018.38 68.0815C1017.38 72.561 1015.12 81.4882 1011.56 94.938L1019.29 96.9839C1022.84 83.5587 1025.15 74.478 1026.19 69.8169L1018.38 68.0815ZM1015.42 99.9609H1033.65V91.9609H1015.42V99.9609ZM1118.22 131L1114.38 132.093L1115.2 135H1118.22V131ZM1100.7 69.3008L1104.55 68.2082L1103.73 65.3008H1100.7V69.3008ZM1100.18 69.3008V65.3008H1095.85L1096.19 69.6121L1100.18 69.3008ZM1101.41 131V135H1105.41V131H1101.41ZM1080.9 131H1076.9V135H1080.9V131ZM1080.9 45.3359V41.3359H1076.9V45.3359H1080.9ZM1111.72 45.3359L1115.56 44.2083L1114.71 41.3359H1111.72V45.3359ZM1129.59 106.156L1125.75 107.284L1126.6 110.156H1129.59V106.156ZM1130.06 106.156V110.156H1133.07L1133.9 107.263L1130.06 106.156ZM1147.58 45.3359V41.3359H1144.57L1143.74 44.2287L1147.58 45.3359ZM1178.46 45.3359H1182.46V41.3359H1178.46V45.3359ZM1178.46 131V135H1182.46V131H1178.46ZM1157.19 131H1153.19V135H1157.19V131ZM1157.25 86.9375L1153.25 86.8064L1153.25 86.8392L1153.25 86.8719L1157.25 86.9375ZM1158.07 69.418L1162.06 69.6194L1162.27 65.418H1158.07V69.418ZM1157.54 69.418V65.418H1154.51L1153.69 68.337L1157.54 69.418ZM1140.26 131V135H1143.29L1144.11 132.081L1140.26 131ZM1122.07 129.907L1104.55 68.2082L1096.86 70.3934L1114.38 132.093L1122.07 129.907ZM1100.7 65.3008H1100.18V73.3008H1100.7V65.3008ZM1096.19 69.6121C1097.01 80.0848 1097.41 88.1279 1097.41 93.793H1105.41C1105.41 87.8174 1104.99 79.5324 1104.17 68.9895L1096.19 69.6121ZM1097.41 93.793V131H1105.41V93.793H1097.41ZM1101.41 127H1080.9V135H1101.41V127ZM1084.9 131V45.3359H1076.9V131H1084.9ZM1080.9 49.3359H1111.72V41.3359H1080.9V49.3359ZM1107.88 46.4636L1125.75 107.284L1133.43 105.029L1115.56 44.2083L1107.88 46.4636ZM1129.59 110.156H1130.06V102.156H1129.59V110.156ZM1133.9 107.263L1151.42 46.4431L1143.74 44.2287L1126.22 105.049L1133.9 107.263ZM1147.58 49.3359H1178.46V41.3359H1147.58V49.3359ZM1174.46 45.3359V131H1182.46V45.3359H1174.46ZM1178.46 127H1157.19V135H1178.46V127ZM1161.19 131V93.4414H1153.19V131H1161.19ZM1161.19 93.4414C1161.19 91.5143 1161.21 89.3686 1161.25 87.0031L1153.25 86.8719C1153.21 89.272 1153.19 91.4623 1153.19 93.4414H1161.19ZM1161.25 87.0686C1161.32 84.7288 1161.59 78.9288 1162.06 69.6194L1154.07 69.2165C1153.6 78.5009 1153.33 84.3806 1153.25 86.8064L1161.25 87.0686ZM1158.07 65.418H1157.54V73.418H1158.07V65.418ZM1153.69 68.337L1136.4 129.919L1144.11 132.081L1161.39 70.4989L1153.69 68.337ZM1140.26 127H1118.22V135H1140.26V127Z" fill="#A5DDFF"/>
</g>
<g filter="url(#filter2_d)">
<path d="M131.756 88.0508C131.756 102.465 128.221 113.422 121.151 120.922C114.08 128.422 103.729 132.172 90.0961 132.172C76.6586 132.172 66.3461 128.402 59.1586 120.863C52.0101 113.324 48.4359 102.348 48.4359 87.9336C48.4359 73.6758 51.9906 62.7969 59.1 55.2969C66.2484 47.7578 76.6195 43.9883 90.2133 43.9883C103.846 43.9883 114.178 47.7188 121.209 55.1797C128.241 62.6406 131.756 73.5977 131.756 88.0508ZM72.8109 88.0508C72.8109 104.613 78.5726 112.895 90.0961 112.895C95.9554 112.895 100.291 110.883 103.104 106.859C105.955 102.836 107.381 96.5664 107.381 88.0508C107.381 79.4961 105.936 73.1875 103.045 69.125C100.194 65.0234 95.9164 62.9727 90.2133 62.9727C78.6117 62.9727 72.8109 71.332 72.8109 88.0508ZM173.618 131H150.825V45.3359H201.45V63.9102H173.618V80.2578H199.282V98.832H173.618V131ZM241.905 131H219.112V45.3359H269.737V63.9102H241.905V80.2578H267.57V98.832H241.905V131ZM343.416 104.984C343.416 110.297 342.068 115.023 339.373 119.164C336.677 123.266 332.791 126.469 327.712 128.773C322.634 131.039 316.677 132.172 309.841 132.172C304.138 132.172 299.353 131.781 295.486 131C291.619 130.18 287.595 128.773 283.416 126.781V106.156C287.83 108.422 292.42 110.199 297.185 111.488C301.951 112.738 306.326 113.363 310.31 113.363C313.748 113.363 316.267 112.777 317.869 111.605C319.47 110.395 320.271 108.852 320.271 106.977C320.271 105.805 319.939 104.789 319.275 103.93C318.65 103.031 317.615 102.133 316.17 101.234C314.763 100.336 310.974 98.5 304.802 95.7266C299.216 93.1875 295.017 90.7266 292.205 88.3438C289.431 85.9609 287.361 83.2266 285.994 80.1406C284.666 77.0547 284.002 73.4023 284.002 69.1836C284.002 61.293 286.873 55.1406 292.615 50.7266C298.357 46.3125 306.248 44.1055 316.287 44.1055C325.154 44.1055 334.197 46.1562 343.416 50.2578L336.326 68.1289C328.318 64.457 321.404 62.6211 315.584 62.6211C312.576 62.6211 310.388 63.1484 309.021 64.2031C307.654 65.2578 306.97 66.5664 306.97 68.1289C306.97 69.8086 307.83 71.3125 309.548 72.6406C311.306 73.9688 316.033 76.3906 323.728 79.9062C331.111 83.2266 336.228 86.8008 339.08 90.6289C341.97 94.418 343.416 99.2031 343.416 104.984ZM433.676 131H410.414V96.0781H383.52V131H360.258V45.3359H383.52V77.0938H410.414V45.3359H433.676V131ZM536.006 88.0508C536.006 102.465 532.471 113.422 525.401 120.922C518.33 128.422 507.979 132.172 494.346 132.172C480.909 132.172 470.596 128.402 463.409 120.863C456.26 113.324 452.686 102.348 452.686 87.9336C452.686 73.6758 456.241 62.7969 463.35 55.2969C470.498 47.7578 480.87 43.9883 494.463 43.9883C508.096 43.9883 518.428 47.7188 525.459 55.1797C532.491 62.6406 536.006 73.5977 536.006 88.0508ZM477.061 88.0508C477.061 104.613 482.823 112.895 494.346 112.895C500.205 112.895 504.541 110.883 507.354 106.859C510.205 102.836 511.631 96.5664 511.631 88.0508C511.631 79.4961 510.186 73.1875 507.295 69.125C504.444 65.0234 500.166 62.9727 494.463 62.9727C482.862 62.9727 477.061 71.332 477.061 88.0508ZM578.22 99.8281V131H555.075V45.3359H583.141C606.423 45.3359 618.063 53.7734 618.063 70.6484C618.063 80.5703 613.22 88.2461 603.532 93.6758L628.493 131H602.243L584.079 99.8281H578.22ZM578.22 82.4258H582.555C590.641 82.4258 594.684 78.8516 594.684 71.7031C594.684 65.8047 590.72 62.8555 582.79 62.8555H578.22V82.4258ZM690.745 131H639.886V45.3359H690.745V63.9102H663.03V77.3867H688.695V95.9609H663.03V112.133H690.745V131ZM816.832 86.3516C816.832 100.648 812.887 111.664 804.996 119.398C797.145 127.133 786.09 131 771.832 131H744.117V45.3359H773.766C787.516 45.3359 798.121 48.8516 805.582 55.8828C813.082 62.9141 816.832 73.0703 816.832 86.3516ZM792.809 87.1719C792.809 79.3203 791.246 73.5 788.121 69.7109C785.035 65.9219 780.328 64.0273 774 64.0273H767.262V112.016H772.418C779.449 112.016 784.605 109.984 787.887 105.922C791.168 101.82 792.809 95.5703 792.809 87.1719ZM858.987 99.8281V131H835.842V45.3359H863.909C887.19 45.3359 898.83 53.7734 898.83 70.6484C898.83 80.5703 893.987 88.2461 884.299 93.6758L909.26 131H883.01L864.846 99.8281H858.987ZM858.987 82.4258H863.323C871.409 82.4258 875.452 78.8516 875.452 71.7031C875.452 65.8047 871.487 62.8555 863.557 62.8555H858.987V82.4258ZM971.512 131H920.653V45.3359H971.512V63.9102H943.798V77.3867H969.462V95.9609H943.798V112.133H971.512V131ZM1042.67 131L1038.45 114.945H1010.62L1006.28 131H980.855L1008.8 44.9844H1039.68L1067.98 131H1042.67ZM1033.65 95.9609L1029.96 81.8984C1029.1 78.7734 1028.04 74.7305 1026.79 69.7695C1025.58 64.8086 1024.78 61.2539 1024.39 59.1055C1024.04 61.0977 1023.34 64.3789 1022.28 68.9492C1021.26 73.5195 1018.98 82.5234 1015.42 95.9609H1033.65ZM1118.22 131L1100.7 69.3008H1100.18C1101 79.8086 1101.41 87.9727 1101.41 93.793V131H1080.9V45.3359H1111.72L1129.59 106.156H1130.06L1147.58 45.3359H1178.46V131H1157.19V93.4414C1157.19 91.4883 1157.21 89.3203 1157.25 86.9375C1157.33 84.5547 1157.6 78.7148 1158.07 69.418H1157.54L1140.26 131H1118.22Z" fill="white"/>
</g>
<defs>
<filter id="filter0_d" x="0.435913" y="7.98828" width="1226.02" height="184.184" filterUnits="userSpaceOnUse" color-interpolation-filters="sRGB">
<feFlood flood-opacity="0" result="BackgroundImageFix"/>
<feColorMatrix in="SourceAlpha" type="matrix" values="0 0 0 0 0 0 0 0 0 0 0 0 0 0 0 0 0 0 127 0"/>
<feOffset dy="12"/>
<feGaussianBlur stdDeviation="20"/>
<feColorMatrix type="matrix" values="0 0 0 0 0.101406 0 0 0 0 0.26043 0 0 0 0 0.7375 0 0 0 0.24 0"/>
<feBlend mode="normal" in2="BackgroundImageFix" result="effect1_dropShadow"/>
<feBlend mode="normal" in="SourceGraphic" in2="effect1_dropShadow" result="shape"/>
</filter>
<filter id="filter1_d" x="4.43591" y="11.9883" width="1218.02" height="176.184" filterUnits="userSpaceOnUse" color-interpolation-filters="sRGB">
<feFlood flood-opacity="0" result="BackgroundImageFix"/>
<feColorMatrix in="SourceAlpha" type="matrix" values="0 0 0 0 0 0 0 0 0 0 0 0 0 0 0 0 0 0 127 0"/>
<feOffset dy="12"/>
<feGaussianBlur stdDeviation="20"/>
<feColorMatrix type="matrix" values="0 0 0 0 0.101406 0 0 0 0 0.26043 0 0 0 0 0.7375 0 0 0 0.24 0"/>
<feBlend mode="normal" in2="BackgroundImageFix" result="effect1_dropShadow"/>
<feBlend mode="normal" in="SourceGraphic" in2="effect1_dropShadow" result="shape"/>
</filter>
<filter id="filter2_d" x="8.43591" y="15.9883" width="1210.02" height="168.184" filterUnits="userSpaceOnUse" color-interpolation-filters="sRGB">
<feFlood flood-opacity="0" result="BackgroundImageFix"/>
<feColorMatrix in="SourceAlpha" type="matrix" values="0 0 0 0 0 0 0 0 0 0 0 0 0 0 0 0 0 0 127 0"/>
<feOffset dy="12"/>
<feGaussianBlur stdDeviation="20"/>
<feColorMatrix type="matrix" values="0 0 0 0 0.101406 0 0 0 0 0.26043 0 0 0 0 0.7375 0 0 0 0.24 0"/>
<feBlend mode="normal" in2="BackgroundImageFix" result="effect1_dropShadow"/>
<feBlend mode="normal" in="SourceGraphic" in2="effect1_dropShadow" result="shape"/>
</filter>
</defs>
</svg>
